<svg xmlns="http://www.w3.org/2000/svg" xmlns:xlink="http://www.w3.org/1999/xlink" preserveAspectRatio="xMidYMid meet" version="1.0" viewBox="-0.7 -0.7 89.1 98.3" zoomAndPan="magnify" style="fill: rgb(226, 184, 150);" original_string_length="7978"><g id="__id1259_sxxadgm5t"><path d="M76,95H47.5c-0.9,0-1.8-0.1-2.7-0.3c-0.2,0-0.3-0.2-0.3-0.4s0.2-0.3,0.4-0.3l0,0c0.8,0.2,1.7,0.3,2.5,0.3H76 c6.4,0,11.6-5.2,11.6-11.6V12.8c0-6.4-5.2-11.6-11.6-11.6H47.5c-0.8,0-1.6,0.1-2.4,0.3c-0.2,0-0.4-0.1-0.4-0.3s0.1-0.4,0.3-0.4 c0.9-0.2,1.7-0.3,2.6-0.3H76c6.8,0,12.4,5.5,12.4,12.4v69.8C88.4,89.4,82.9,95,76,95z" style="fill: inherit;"/><path d="M74.2,91.6H56.7c-0.2,0-0.4-0.2-0.4-0.4s0.2-0.4,0.4-0.4h17.5c6.4,0,11.6-5.2,11.6-11.6V15.3c0-6.4-5.2-11.6-11.6-11.6 H49.4c-0.3,0-0.5,0-0.8,0c-0.2,0-0.4-0.1-0.4-0.3c0-0.2,0.1-0.4,0.3-0.4c0,0,0,0,0,0c0.3,0,0.5,0,0.8,0h24.8 C81,3,86.6,8.5,86.6,15.3v63.9C86.6,86.1,81,91.6,74.2,91.6z" style="fill: inherit;"/><path d="M61.8,58.3c-1.2,0-2.4-0.2-3.5-0.5c-0.2-0.1-0.3-0.3-0.3-0.5c0.1-0.2,0.3-0.3,0.5-0.3c0,0,0,0,0,0 c5.6,1.8,11.6-1.3,13.4-6.9c1.8-5.6-1.3-11.6-6.9-13.4c-3-1-6.2-0.6-8.9,1.1c-0.2,0.1-0.4,0.1-0.5-0.1s-0.1-0.4,0.1-0.5 c5.3-3.3,12.4-1.7,15.7,3.6c3.3,5.3,1.7,12.4-3.6,15.7C66,57.7,63.9,58.3,61.8,58.3z" style="fill: inherit;"/><path d="M61.6,50.9c-1.4,0-2.8,0-4.1-0.1c-0.2,0-0.4-0.2-0.4-0.4s0.2-0.4,0.4-0.4l0,0c1.3,0.1,2.7,0.1,4,0.1c3.5,0,7-0.2,10.5-0.8 c0.2,0,0.4,0.1,0.4,0.3c0,0.2-0.1,0.4-0.3,0.4c0,0,0,0,0,0C68.7,50.7,65.2,51,61.6,50.9z" style="fill: inherit;"/><path d="M72.2,50.2c-0.2,0-0.4-0.2-0.4-0.4c0-0.2,0.1-0.3,0.3-0.4c4.1-0.7,6-1.7,6-2.4c0-0.6-1.5-1.6-5.7-2.3 c-0.2,0-0.3-0.2-0.3-0.4c0-0.2,0.2-0.3,0.4-0.3c2.9,0.5,6.3,1.5,6.3,3.1C78.9,48.7,75.3,49.7,72.2,50.2 C72.2,50.2,72.2,50.2,72.2,50.2z" style="fill: inherit;"/><path d="M70.7,34.1c-1.5,0-2.7-1.2-2.7-2.7s1.2-2.7,2.7-2.7s2.7,1.2,2.7,2.7c0,0,0,0,0,0C73.4,32.9,72.2,34.1,70.7,34.1z M70.7,29.5c-1.1,0-1.9,0.9-1.9,1.9c0,1.1,0.9,1.9,1.9,1.9s1.9-0.9,1.9-1.9c0,0,0,0,0,0C72.7,30.4,71.8,29.5,70.7,29.5z" style="fill: inherit;"/><path d="M60.3,31.5c-1.2,0-2.2-1-2.2-2.2c0-1.2,1-2.2,2.2-2.2c1.2,0,2.2,1,2.2,2.2c0,0,0,0,0,0C62.5,30.6,61.5,31.5,60.3,31.5z M60.3,27.9c-0.8,0-1.5,0.7-1.5,1.5s0.7,1.5,1.5,1.5s1.5-0.7,1.5-1.5C61.8,28.5,61.1,27.9,60.3,27.9z" style="fill: inherit;"/><path d="M77.4,41.4c-1.2,0-2.2-1-2.2-2.2s1-2.2,2.2-2.2c1.2,0,2.2,1,2.2,2.2c0,0,0,0,0,0C79.6,40.4,78.6,41.4,77.4,41.4z M77.4,37.7c-0.8,0-1.5,0.7-1.5,1.5s0.7,1.5,1.5,1.5c0.8,0,1.5-0.7,1.5-1.5c0,0,0,0,0,0C78.9,38.4,78.2,37.7,77.4,37.7z" style="fill: inherit;"/><path d="M71.5,63c-1.2,0-2.1-0.9-2.1-2.1s0.9-2.1,2.1-2.1s2.1,0.9,2.1,2.1c0,0,0,0,0,0C73.6,62.1,72.6,63,71.5,63z M71.5,59.6 c-0.7,0-1.3,0.6-1.3,1.3s0.6,1.3,1.3,1.3c0.7,0,1.3-0.6,1.3-1.3l0,0C72.8,60.2,72.2,59.6,71.5,59.6z" style="fill: inherit;"/><path d="M61.3,65.5c-1.2,0-2.1-0.9-2.1-2.1s0.9-2.1,2.1-2.1s2.1,0.9,2.1,2.1c0,0,0,0,0,0C63.4,64.6,62.5,65.5,61.3,65.5z M61.3,62.1c-0.7,0-1.3,0.6-1.3,1.3c0,0.7,0.6,1.3,1.3,1.3s1.3-0.6,1.3-1.3c0,0,0,0,0,0C62.6,62.7,62,62.1,61.3,62.1z" style="fill: inherit;"/><path d="M21,97.6c-6.2,0-11.5-4.7-12.3-10.8L0.1,17.4c-0.8-6.8,4-13,10.7-13.8l28.3-3.5c6.8-0.8,13,4,13.8,10.7l3.3,26.5l0,0 l5.3,42.8c0.8,6.8-4,12.9-10.7,13.8l-28.3,3.5C22,97.5,21.5,97.6,21,97.6z M40.7,0.7c-0.5,0-1,0-1.4,0.1L10.9,4.4 C4.6,5.2,0.1,11,0.8,17.3l8.6,69.3c0.8,6.4,6.6,10.9,13,10.1l28.3-3.5c6.4-0.8,10.9-6.6,10.1-13l-8.6-69.3 C51.5,5.1,46.6,0.8,40.7,0.7z" style="fill: inherit;"/><path d="M22.5,94c-6.2,0-11.5-4.7-12.3-10.8L2.3,19.8C1.5,13,6.3,6.8,13,5.9l24.6-3.1c6.8-0.8,13,4,13.8,10.7l7.9,63.4 c0.8,6.8-4,12.9-10.7,13.8l0-0.4l0,0.4L24,93.9C23.5,94,23,94,22.5,94z M39.2,3.5c-0.5,0-1,0-1.4,0.1L13.1,6.7 C6.8,7.5,2.3,13.3,3,19.7L11,83.1c0.8,6.4,6.6,10.9,13,10.1l24.6-3.1l0,0c6.4-0.8,10.9-6.6,10.1-13l-7.9-63.4 C50,7.9,45,3.5,39.2,3.5L39.2,3.5z" style="fill: inherit;"/><path d="M31.1,58.7c-4.3-0.1-8.5-1.3-12.1-3.6c-0.2-0.1-0.2-0.3-0.1-0.5c0,0,0,0,0,0c2.8-3.7,6.8-6.3,11.4-7.2 c4.9-0.8,10,0.7,15.2,4.4c0.2,0.1,0.2,0.4,0.1,0.5c0,0,0,0,0,0C41.8,56.4,36.6,58.7,31.1,58.7z M19.7,54.7 c14.1,8.1,23.2-0.7,24.9-2.5c-4.9-3.5-9.7-4.8-14.2-4C26.2,49,22.4,51.3,19.7,54.7z" style="fill: inherit;"/><path d="M16.1,53.3c-0.2,0-0.4-0.2-0.4-0.4c0-0.1,0-0.2,0.1-0.3c5.5-6.1,11.3-9.2,17.3-9.2l0,0c8.7,0,14.8,6.7,14.8,6.7 c0.1,0.2,0.1,0.4,0,0.5c-0.2,0.1-0.4,0.1-0.5,0l0,0c-0.1-0.1-5.9-6.5-14.3-6.5h0c-5.8,0-11.4,3-16.8,9 C16.3,53.3,16.2,53.3,16.1,53.3z" style="fill: inherit;"/><path d="M16.6,52.7c-0.1,0-0.1,0-0.2,0L11,49.6c-0.2-0.1-0.2-0.3-0.1-0.5s0.3-0.2,0.5-0.1l5.4,3.1c0.2,0.1,0.2,0.3,0.1,0.5 C16.9,52.7,16.7,52.7,16.6,52.7L16.6,52.7z" style="fill: inherit;"/><path d="M19,50.4c-0.1,0-0.2,0-0.2-0.1l-8.3-6.2c-0.2-0.1-0.2-0.4,0-0.5c0.1-0.1,0.3-0.2,0.5-0.1l8.3,6.2c0.2,0.1,0.2,0.4,0.1,0.5 C19.2,50.3,19.1,50.4,19,50.4L19,50.4z" style="fill: inherit;"/><path d="M21.5,48.3c-0.1,0-0.2,0-0.3-0.1l-9.3-11.1c-0.1-0.2-0.1-0.4,0-0.5c0.2-0.1,0.4-0.1,0.5,0l0,0l9.3,11.1 c0.1,0.2,0.1,0.4,0,0.5C21.7,48.3,21.6,48.3,21.5,48.3L21.5,48.3z" style="fill: inherit;"/><path d="M24.6,46.4c-0.1,0-0.3-0.1-0.3-0.2l-5.3-9c-0.1-0.2,0-0.4,0.1-0.5s0.4,0,0.5,0.1l5.4,9c0.1,0.2,0,0.4-0.1,0.5 C24.7,46.4,24.6,46.4,24.6,46.4z" style="fill: inherit;"/><path d="M27.5,45.1c-0.2,0-0.3-0.1-0.4-0.2l-4.9-13.4c-0.1-0.2,0-0.4,0.2-0.5c0.2-0.1,0.4,0,0.5,0.2l4.9,13.4 c0.1,0.2,0,0.4-0.2,0.5C27.6,45.1,27.5,45.1,27.5,45.1z" style="fill: inherit;"/><path d="M30.5,44.4c-0.2,0-0.3-0.1-0.4-0.3l-2.5-20.4c0-0.2,0.1-0.4,0.3-0.4c0.2,0,0.4,0.1,0.4,0.3L30.8,44 C30.8,44.2,30.7,44.4,30.5,44.4L30.5,44.4z" style="fill: inherit;"/><path d="M33.5,44.2C33.5,44.2,33.4,44.2,33.5,44.2c-0.2,0-0.4-0.2-0.4-0.4l1.4-14.4c0-0.2,0.2-0.4,0.4-0.3c0.2,0,0.4,0.2,0.3,0.4 c0,0,0,0,0,0l-1.4,14.4C33.8,44,33.7,44.2,33.5,44.2z" style="fill: inherit;"/><path d="M36.6,44.5c0,0-0.1,0-0.1,0c-0.2-0.1-0.3-0.3-0.3-0.5l3-10.2c0.1-0.2,0.3-0.3,0.5-0.3c0,0,0,0,0,0c0.2,0.1,0.3,0.3,0.3,0.5 l-3,10.2C36.9,44.4,36.8,44.5,36.6,44.5z" style="fill: inherit;"/><path d="M40,45.6c-0.1,0-0.1,0-0.2,0c-0.2-0.1-0.3-0.3-0.2-0.5c0,0,0,0,0,0L46,32c0.1-0.2,0.3-0.3,0.5-0.2s0.3,0.3,0.2,0.5l0,0 l-6.3,13.1C40.3,45.5,40.2,45.6,40,45.6z" style="fill: inherit;"/><path d="M42.8,47c-0.2,0-0.4-0.2-0.4-0.4c0-0.1,0-0.2,0.1-0.2l6.7-8.1c0.1-0.2,0.4-0.2,0.5-0.1s0.2,0.4,0.1,0.5l-6.7,8.1 C43,46.9,42.9,47,42.8,47z" style="fill: inherit;"/><path d="M45.7,48.9c-0.2,0-0.4-0.2-0.4-0.4c0-0.1,0-0.2,0.1-0.3l4.3-4.2c0.1-0.2,0.4-0.2,0.5,0s0.2,0.4,0,0.5c0,0,0,0,0,0l-4.3,4.2 C45.9,48.9,45.8,48.9,45.7,48.9z" style="fill: inherit;"/><path d="M18.3,60.7c-0.7,0-1.3-0.6-1.3-1.3c0-0.2,0-0.4,0.1-0.5c0.3-0.6,1-0.9,1.7-0.7c0.3,0.1,0.6,0.4,0.7,0.7 c0.3,0.7-0.1,1.4-0.7,1.7C18.6,60.7,18.5,60.7,18.3,60.7L18.3,60.7z M18.3,58.9c-0.2,0-0.4,0.1-0.5,0.3c-0.1,0.3,0,0.6,0.3,0.7 c0.3,0.1,0.6,0,0.7-0.3s0-0.6-0.3-0.7C18.5,58.9,18.4,58.9,18.3,58.9L18.3,58.9z" style="fill: inherit;"/><path d="M24.5,62.2c-0.7,0-1.3-0.6-1.3-1.3c0-0.7,0.6-1.3,1.3-1.3c0.7,0,1.3,0.6,1.3,1.3c0,0.2,0,0.4-0.1,0.5 C25.5,61.9,25,62.2,24.5,62.2z M24.5,60.4c-0.3,0-0.5,0.2-0.5,0.5c0,0.2,0.1,0.4,0.3,0.5c0.3,0.1,0.6,0,0.7-0.3 c0.1-0.1,0.1-0.3,0-0.4c-0.1-0.1-0.2-0.2-0.3-0.3C24.7,60.4,24.6,60.4,24.5,60.4L24.5,60.4z" style="fill: inherit;"/><path d="M30.9,62.9c-0.2,0-0.4,0-0.5-0.1c-0.6-0.3-0.9-1.1-0.7-1.7c0.3-0.6,1.1-0.9,1.7-0.7c0.6,0.3,0.9,1.1,0.7,1.7l0,0 C31.9,62.6,31.4,62.9,30.9,62.9z M30.9,61.1c-0.3,0-0.5,0.2-0.5,0.5s0.2,0.5,0.5,0.5c0.2,0,0.4-0.1,0.5-0.3l0,0 c0.1-0.1,0.1-0.3,0-0.4C31.3,61.2,31.2,61.1,30.9,61.1L30.9,61.1z" style="fill: inherit;"/><path d="M31.9,56.9c-3.2,0-5.7-2.6-5.7-5.7c0-0.8,0.2-1.6,0.5-2.3c0.1-0.2,0.2-0.3,0.2-0.5c0.1-0.2,0.3-0.2,0.5-0.1 c0.2,0.1,0.2,0.3,0.1,0.5c-0.1,0.1-0.1,0.3-0.2,0.4c-1.1,2.5,0,5.4,2.5,6.6c2.5,1.1,5.4,0,6.6-2.5l0,0c0.8-1.7,0.5-3.7-0.7-5.1 c-0.1-0.2-0.1-0.4,0-0.5c0.2-0.1,0.4-0.1,0.5,0c0,0,0,0,0,0c1.5,1.6,1.8,4,0.9,5.9C36.2,55.6,34.2,56.9,31.9,56.9z" style="fill: inherit;"/><path d="M31.7,54.6c-2.6,0-4.6-2.1-4.6-4.6c0-0.6,0.1-1.1,0.3-1.6c0.1-0.2,0.3-0.3,0.5-0.3s0.3,0.3,0.3,0.5c0,0,0,0,0,0.1 c-0.7,2,0.3,4.3,2.3,5c2,0.7,4.3-0.3,5-2.3c0.4-1.1,0.3-2.3-0.3-3.4c-0.1-0.2,0-0.4,0.1-0.5c0.2-0.1,0.4,0,0.5,0.1 c1.3,2.2,0.6,5.1-1.6,6.4C33.3,54.4,32.5,54.6,31.7,54.6L31.7,54.6z" style="fill: inherit;"/><path d="M38.9,61.7c-0.7,0-1.3-0.6-1.3-1.3s0.6-1.3,1.3-1.3c0.7,0,1.3,0.6,1.3,1.3c0,0.2,0,0.4-0.1,0.5 C39.9,61.4,39.4,61.7,38.9,61.7z M38.9,59.9c-0.2,0-0.4,0.1-0.5,0.3c-0.1,0.3,0,0.6,0.3,0.7s0.6,0,0.7-0.3c0.1-0.3,0-0.6-0.3-0.7 C39.1,59.9,39,59.9,38.9,59.9L38.9,59.9z" style="fill: inherit;"/><path d="M46.1,58c-0.7,0-1.3-0.6-1.3-1.3s0.6-1.3,1.3-1.3s1.3,0.6,1.3,1.3c0,0.2,0,0.4-0.1,0.5l0,0C47.1,57.7,46.6,58,46.1,58z M46.1,56.2c-0.3,0-0.5,0.2-0.5,0.5c0,0.3,0.2,0.5,0.5,0.5c0.3,0,0.5-0.2,0.5-0.5c0-0.2-0.1-0.4-0.3-0.5 C46.3,56.2,46.2,56.2,46.1,56.2L46.1,56.2z M46.9,57.1L46.9,57.1z" style="fill: inherit;"/></g></svg>