<svg xmlns="http://www.w3.org/2000/svg" xmlns:xlink="http://www.w3.org/1999/xlink" preserveAspectRatio="xMidYMid meet" version="1.0" viewBox="0.0 0.0 354.2 500.0" zoomAndPan="magnify" style="fill: rgb(0, 0, 0);" original_string_length="6651"><g id="__id990_sxxadgm5t"><path d="M7.3,12.5c0-2.9,2.4-5.3,5.3-5.3c2.9,0,5.3,2.4,5.3,5.3c0,2.9-2.4,5.3-5.3,5.3C9.7,17.8,7.3,15.4,7.3,12.5z M336.3,12.5c0,2.9,2.4,5.3,5.3,5.3c2.9,0,5.3-2.4,5.3-5.3c0-2.9-2.4-5.3-5.3-5.3C338.6,7.3,336.3,9.6,336.3,12.5z M17.9,487.6 c0-2.9-2.4-5.3-5.3-5.3c-2.9,0-5.3,2.4-5.3,5.3c0,2.9,2.4,5.3,5.3,5.3C15.5,492.9,17.9,490.5,17.9,487.6z M341.6,482.2 c-2.9,0-5.3,2.4-5.3,5.3c0,2.9,2.4,5.3,5.3,5.3c2.9,0,5.3-2.4,5.3-5.3C346.8,484.6,344.5,482.2,341.6,482.2z M354.2,1V499 c0,0.6-0.5,1-1,1h-27.8H292H1c-0.6,0-1-0.5-1-1V1c0-0.6,0.5-1,1-1h28.2c0,0,0,0,0,0h33.3c0,0,0,0,0,0h229.1c0,0,0,0,0,0H325 c0,0,0,0,0,0h28.2C353.7,0,354.2,0.5,354.2,1z M292.8,2.1c0.5,3.7,3.7,6.6,7.6,6.6H319c1.4-2.8,3.7-5.2,6.5-6.6H292.8z M343.4,463.6 V453c0,0,0,0,0-0.1v-37.1c-7.8,36.8-37,65.8-73.9,73.3l48.6,0c-0.5-1.4-0.7-2.9-0.7-4.5c0-12,9.8-21.7,21.7-21.7 C340.6,463,342,463.2,343.4,463.6z M2.1,497.7h11.1c6.1,0,11.1-5,11.1-11.1c0-6.1-5-11.1-11.1-11.1s-11.1,5-11.1,11.1V497.7z M20.2,497.7h1.6c7.1,0,12.9-5.8,12.9-12.9c0-10.9-8.8-19.7-19.7-19.7c-1.7,0-3.3,0.3-4.8,0.9c0,0,0,0,0,0c-4.7,1.9-8.1,6.6-8.1,12 v1.6c2.3-3.7,6.4-6.1,11.1-6.1c7.2,0,13.1,5.9,13.1,13.1C26.3,491.3,23.8,495.4,20.2,497.7z M2.1,22.1c0,5.4,3.3,10,8.1,12 c0,0,0,0,0,0c1.5,0.6,3.1,0.9,4.8,0.9c10.9,0,19.7-8.8,19.7-19.7c0-7.1-5.8-12.9-12.9-12.9h-1.6c3.7,2.3,6.1,6.4,6.1,11.1 c0,7.2-5.9,13.1-13.1,13.1c-4.6,0-8.7-2.4-11.1-6.1V22.1z M13.1,24.5c6.1,0,11.1-5,11.1-11.1s-5-11.1-11.1-11.1H2.1v11.1 C2.1,19.6,7,24.5,13.1,24.5z M352.1,2.4H341c-6.1,0-11.1,5-11.1,11.1s5,11.1,11.1,11.1c6.1,0,11.1-5,11.1-11.1V2.4z M334,2.4h-1.6 c-7.1,0-12.9,5.8-12.9,12.9c0,10.9,8.8,19.7,19.7,19.7c1.7,0,3.3-0.3,4.8-0.9c0,0,0,0,0,0c4.7-1.9,8.1-6.6,8.1-12v-1.6 c-2.3,3.7-6.4,6.1-11.1,6.1c-7.2,0-13.1-5.9-13.1-13.1C327.9,8.8,330.3,4.7,334,2.4z M345.4,53.8c0,3.9,2.9,7.1,6.6,7.6V29.7 c-1.5,2.6-3.9,4.7-6.6,6v10.1V53.8z M317.4,15.3c0-1.6,0.3-3.1,0.7-4.5h-17.8h-30.2c36.6,7.8,65.4,36.6,73.1,73.2V53.8v-8v-9.3 c-1.3,0.4-2.7,0.6-4.2,0.6C327.2,37.1,317.4,27.3,317.4,15.3z M250.8,10.8h-47.1c26.1,4.1,50.7,14.3,72.4,30.1 c3.6-3.9,8.7-6.2,14.1-6.2c10.6,0,19.3,8.6,19.3,19.3c0,4.8-1.8,9.4-5,12.9c20.7,23.9,34.1,53.1,39,84.1v-47.3 C343.4,52.5,301.8,10.9,250.8,10.8z M2.1,61.4c3.7-0.5,6.6-3.7,6.6-7.6V35.7c-2.8-1.3-5.1-3.4-6.6-6V61.4z M63.8,36.8 c-9.5,0-17.2,7.7-17.2,17.2c0,4.7,1.9,9,5,12.1c-1.1-2-1.8-4.3-1.8-6.8c0-7.7,6.3-14,14-14s14,6.3,14,14c0,2.5-0.7,4.8-1.8,6.8 c3.1-3.1,5-7.4,5-12.1C80.9,44.5,73.2,36.8,63.8,36.8z M65,71.1c6-0.6,10.6-5.7,10.6-11.8c0-6.6-5.3-11.9-11.9-11.9 c-6.6,0-11.9,5.3-11.9,11.9c0,6.1,4.7,11.2,10.6,11.8c0.4,0,0.8,0.1,1.3,0.1C64.2,71.2,64.6,71.1,65,71.1z M10.8,177.1v12.2l0,133.8 c0,39.8,14.3,78.3,40.3,108.4c3.5-3.1,7.9-4.8,12.6-4.8c10.6,0,19.3,8.6,19.3,19.3c0,4.2-1.3,8.1-3.8,11.5 c26.7,19.5,58.1,30.4,91.1,31.7h14.2c32.6-1.4,63.8-12.3,90.2-31.5c-2.5-3.3-3.9-7.4-3.9-11.6c0-10.6,8.6-19.3,19.3-19.3 c4.8,0,9.3,1.8,12.8,4.9c26-30.1,40.4-68.5,40.4-108.3V176.7c-0.1-39.9-14.5-78.3-40.5-108.4c-3.5,3.1-8,4.9-12.8,4.9 c-10.6,0-19.3-8.6-19.3-19.3c0-4.2,1.4-8.2,3.8-11.5c-28.4-20.7-62-31.6-97.3-31.7h-0.7c-35.3,0.1-69,11.1-97.4,31.8 C81.6,45.8,83,49.7,83,54c0,10.1-7.9,18.4-17.8,19.2c-0.5,0.1-1,0.1-1.5,0.1s-1,0-1.5-0.1c-4.2-0.3-8.1-2-11.1-4.6 C25.1,98.7,10.8,137.2,10.8,177.1z M290.1,71.2c6.6,0,11.9-5.3,11.9-11.9s-5.3-11.9-11.9-11.9c-6.6,0-11.9,5.3-11.9,11.9 c0,6.2,4.7,11.2,10.7,11.8C289.3,71.1,289.7,71.2,290.1,71.2z M307.3,54c0-9.5-7.7-17.2-17.2-17.2c-5.1,0-9.9,2.2-13.1,6.1 c-2.6,3.1-4,7-4,11.1c0,4.7,1.9,9,5,12.1c-1.1-2-1.8-4.3-1.8-6.8c0-7.7,6.3-14,14-14c7.7,0,14,6.3,14,14c0,2.5-0.7,4.8-1.8,6.8 C305.5,62.8,307.3,58.6,307.3,54z M290.1,463.1c9.5,0,17.2-7.7,17.2-17.2c0-4.6-1.8-8.9-5-12.1c0,0,0,0,0,0c1.1,2,1.8,4.4,1.8,6.8 c0,7.7-6.3,14-14,14c-7.7,0-14-6.3-14-14c0-2.5,0.7-4.8,1.8-6.8c-3.1,3.1-5,7.4-5,12.1c0,4.1,1.5,8,4.1,11.1 C280.3,460.9,285,463.1,290.1,463.1z M290.1,428.7c-0.4,0-0.8,0-1.2,0.1c-6,0.6-10.7,5.7-10.7,11.8c0,6.6,5.3,11.9,11.9,11.9 c6.6,0,11.9-5.3,11.9-11.9C302,434.1,296.7,428.7,290.1,428.7z M63.7,428.7c-6.6,0-11.9,5.3-11.9,11.9c0,6.6,5.3,11.9,11.9,11.9 s11.9-5.3,11.9-11.9c0-6.2-4.7-11.2-10.7-11.8C64.6,428.8,64.2,428.7,63.7,428.7z M46.6,445.9c0,9.5,7.7,17.2,17.2,17.2 c5.1,0,9.9-2.2,13.2-6.2c2.6-3.1,4-6.9,4-11c0-4.7-1.9-9-5-12.1c1.1,2,1.8,4.3,1.8,6.8c0,7.7-6.3,14-14,14s-14-6.3-14-14 c0-2.4,0.6-4.7,1.7-6.7C48.3,437.1,46.6,441.4,46.6,445.9z M10.8,396.3c0.1,51.1,41.7,92.7,92.9,92.7h46.1 c-25.9-4.2-50.4-14.4-71.8-30.1c-3.7,3.9-8.7,6.2-14.1,6.2c-10.6,0-19.3-8.6-19.3-19.3c0-4.9,1.8-9.5,5.1-13 c-20.6-23.9-34-53-38.8-83.9L10.8,396.3z M250.5,489c51.2,0,92.9-41.7,92.9-92.9v-47.1c-4.9,30.9-18.3,60.1-39,84 c3.2,3.5,5,8,5,12.9c0,10.6-8.6,19.3-19.3,19.3c-5.3,0-10.4-2.2-14-6.1c-21.4,15.6-45.8,25.7-71.6,30H250.5z M103.4,10.8 c-51.1,0.2-92.6,41.8-92.6,92.9V151c4.8-30.9,18.2-60,38.9-83.9c-3.2-3.4-5.2-8-5.2-13.1c0-10.6,8.6-19.3,19.3-19.3 c5.6,0,10.7,2.4,14.2,6.3c21.7-15.9,46.4-26.1,72.6-30.2H103.4z M83.9,10.8H36c0.5,1.4,0.7,3,0.7,4.5c0,12-9.8,21.7-21.7,21.7 c-1.5,0-2.9-0.2-4.2-0.6l0,47.5C18.5,47.4,47.4,18.5,83.9,10.8z M2.1,63.5v373.2c2.7,0.3,5.1,1.7,6.7,3.7l0-44c0-0.1,0-0.1,0-0.2 v-73.2V202.5l0-142.7C7.1,61.8,4.8,63.2,2.1,63.5z M8.7,464.5v-18.2c0-3.8-2.9-7-6.6-7.5v31.8C3.6,467.9,5.9,465.8,8.7,464.5z M29.3,497.7h31.8c-0.5-3.6-3.5-6.4-7.2-6.6l-18.6,0C34.1,493.9,31.9,496.2,29.3,497.7z M84.1,489.1c-36.6-7.7-65.5-36.6-73.3-73.2 l0,30.4c0,0,0,0.1,0,0.1v17.4c1.3-0.4,2.7-0.6,4.2-0.6c12,0,21.7,9.8,21.7,21.7c0,1.5-0.2,2.9-0.6,4.2h17.4c0.2,0,0.3,0,0.5,0 L84.1,489.1z M352.1,438.6c-3.7,0.5-6.6,3.7-6.6,7.6v18.1c2.8,1.3,5.1,3.4,6.6,6V438.6z M352.1,436.6V63.5c-2.7-0.3-5.1-1.7-6.7-3.7 v43.9v73.1c0,0.1,0,0.2,0,0.4v145.9c0,0.1,0,0.2,0,0.4v72.9v44.1C347,438.2,349.4,436.9,352.1,436.6z M290.7,2.1H63.5 c-0.3,2.7-1.7,5-3.7,6.6h43.6c0.1,0,0.2,0,0.3,0h146.8c0.1,0,0.2,0,0.3,0h43.7C292.4,7.1,291,4.8,290.7,2.1z M28.7,2.1 c2.8,1.5,5.1,3.8,6.5,6.6h18.6c3.9,0,7.1-2.9,7.6-6.6H28.7z M63.2,497.9h227.9c0.3-2.7,1.7-5.1,3.7-6.7l-112.6-0.1 c-1.8,0.1-3.5,0.1-5.2,0.1c-1.3,0-2.6,0-3.8-0.1l-113.7-0.1C61.6,492.7,63,495.2,63.2,497.9z M332.4,497.6h1.6 c-3.7-2.3-6.1-6.4-6.1-11.1c0-7.2,5.9-13.1,13.1-13.1c4.6,0,8.7,2.4,11.1,6.1v-1.6c0-5.4-3.3-10-8.1-12c0,0,0,0,0,0 c-1.5-0.6-3.1-0.9-4.8-0.9c-10.9,0-19.7,8.8-19.7,19.7C319.5,491.8,325.3,497.6,332.4,497.6z M341,475.5c-6.1,0-11.1,5-11.1,11.1 s5,11.1,11.1,11.1h11.1v-11.1C352.1,480.5,347.1,475.5,341,475.5z M325.3,497.9L325.3,497.9c-2.7-1.5-4.9-3.8-6.3-6.6h-18.2 c-3.9,0-7.1,2.9-7.6,6.6H325.3z" style="fill: rgb(226, 184, 150);"/></g></svg>