<svg xmlns="http://www.w3.org/2000/svg" xmlns:xlink="http://www.w3.org/1999/xlink" preserveAspectRatio="xMidYMid meet" version="1.0" viewBox="-0.9 -1.1 499.6 487.0" zoomAndPan="magnify" style="fill: rgb(0, 0, 0);" original_string_length="41124"><defs><clipPath id="__id803_sxxadgm5t"><path d="M 273 462 L 299 462 L 299 485.941406 L 273 485.941406 Z M 273 462"/></clipPath><clipPath id="__id804_sxxadgm5t"><path d="M 494 237 L 498.140625 237 L 498.140625 242 L 494 242 Z M 494 237"/></clipPath></defs><g><g id="__id805_sxxadgm5t"><path d="M 258.539062 201.347656 C 259.121094 201.96875 259.988281 202.304688 261.101562 202.035156 C 264.300781 201.277344 267.160156 197.195312 267.339844 193.953125 C 267.453125 192.097656 265.75 190.304688 263.828125 190.765625 C 261.144531 191.382812 259.335938 193.015625 258.101562 195.441406 C 257.191406 197.265625 256.5625 200.023438 258.539062 201.347656" style="fill: rgb(218, 173, 212);"/></g><g id="__id806_sxxadgm5t"><path d="M 306.585938 179.136719 C 308.9375 177.675781 309.652344 174.074219 307.4375 172.117188 C 304.417969 169.398438 300.859375 168.582031 296.859375 169.164062 C 293.867188 169.609375 289.980469 171.214844 290.042969 174.726562 C 289.777344 175.972656 290.117188 177.332031 291.402344 178.464844 C 295.070312 181.699219 302.492188 181.6875 306.585938 179.136719" style="fill: rgb(218, 173, 212);"/></g><g id="__id807_sxxadgm5t"><path d="M 349.796875 189.3125 C 350.597656 185.019531 349.390625 181.308594 346.617188 177.953125 C 344.5625 175.433594 340.925781 172.769531 337.734375 174.757812 C 336.433594 175.207031 335.367188 176.277344 335.03125 178.097656 C 334.09375 183.253906 338.230469 190.074219 342.835938 192.421875 C 345.5 193.761719 349.214844 192.433594 349.796875 189.3125" style="fill: rgb(218, 173, 212);"/></g><g id="__id808_sxxadgm5t"><path d="M 361.9375 220.453125 C 361.199219 224.410156 364.375 229.65625 367.929688 231.457031 C 369.964844 232.496094 372.804688 231.46875 373.253906 229.074219 C 373.878906 225.765625 372.9375 222.925781 370.835938 220.34375 C 369.242188 218.394531 366.425781 216.34375 363.960938 217.914062 C 362.984375 218.269531 362.1875 219.078125 361.9375 220.453125" style="fill: rgb(218, 173, 212);"/></g><g id="__id809_sxxadgm5t"><path d="M 393.894531 272.359375 C 396.019531 269.730469 396.535156 266.769531 395.863281 263.480469 C 395.371094 260.996094 393.859375 257.851562 390.929688 258.085938 C 389.902344 257.941406 388.816406 258.28125 387.945312 259.378906 C 385.4375 262.539062 385.773438 268.667969 388.058594 271.945312 C 389.355469 273.824219 392.371094 274.261719 393.894531 272.359375" style="fill: rgb(218, 173, 212);"/></g><g id="__id810_sxxadgm5t"><path d="M 374.703125 302.113281 C 373.792969 301.433594 372.574219 301.1875 371.171875 301.800781 C 367.167969 303.535156 364.375 309.539062 364.886719 313.808594 C 365.179688 316.257812 367.816406 318.203125 370.230469 317.164062 C 373.585938 315.746094 375.578125 313.183594 376.628906 309.730469 C 377.414062 307.132812 377.570312 303.390625 374.703125 302.113281" style="fill: rgb(218, 173, 212);"/></g><g id="__id811_sxxadgm5t"><path d="M 356.191406 353.46875 C 356.933594 350.984375 357.085938 347.402344 354.335938 346.179688 C 353.46875 345.539062 352.308594 345.3125 350.976562 345.890625 C 347.152344 347.546875 344.492188 353.28125 344.960938 357.363281 C 345.253906 359.710938 347.78125 361.566406 350.082031 360.570312 C 353.28125 359.207031 355.183594 356.769531 356.191406 353.46875" style="fill: rgb(218, 173, 212);"/></g><g id="__id812_sxxadgm5t"><path d="M 307.480469 368.757812 C 310.410156 367.695312 313.96875 365.277344 313.1875 361.769531 C 313.195312 360.460938 312.570312 359.167969 311.039062 358.289062 C 306.699219 355.808594 299.273438 357.351562 295.675781 360.75 C 293.636719 362.707031 293.636719 366.464844 296.257812 367.984375 C 299.878906 370.085938 303.589844 370.164062 307.480469 368.757812" style="fill: rgb(218, 173, 212);"/></g><g id="__id813_sxxadgm5t"><path d="M 265.328125 353.367188 C 265.871094 352.511719 266.003906 351.40625 265.371094 350.195312 C 263.558594 346.71875 257.96875 344.59375 254.167969 345.320312 C 251.976562 345.746094 250.410156 348.25 251.484375 350.351562 C 253.003906 353.273438 255.421875 354.894531 258.59375 355.617188 C 260.980469 356.148438 264.371094 356.046875 265.328125 353.367188" style="fill: rgb(218, 173, 212);"/></g><g id="__id814_sxxadgm5t"><path d="M 223.695312 337.863281 C 224.539062 336.566406 224.742188 334.878906 223.773438 333.03125 C 221.046875 327.820312 212.683594 324.636719 206.957031 325.730469 C 203.695312 326.367188 201.324219 330.113281 202.953125 333.277344 C 205.191406 337.648438 208.835938 340.097656 213.601562 341.171875 C 217.179688 341.96875 222.238281 341.832031 223.695312 337.863281" style="fill: rgb(218, 173, 212);"/></g><g id="__id815_sxxadgm5t"><path d="M 186.195312 305.898438 C 187.160156 305.585938 187.96875 304.820312 188.242188 303.476562 C 189 299.6875 186.050781 294.589844 182.671875 292.789062 C 180.746094 291.761719 178 292.6875 177.507812 294.980469 C 176.859375 298.144531 177.683594 300.894531 179.675781 303.421875 C 181.179688 305.308594 183.808594 307.332031 186.195312 305.898438" style="fill: rgb(218, 173, 212);"/></g><g id="__id816_sxxadgm5t"><path d="M 158.386719 249.226562 C 155.882812 247.894531 152.300781 249.089844 151.675781 252.066406 C 150.824219 256.167969 151.921875 259.738281 154.492188 263.003906 C 156.417969 265.453125 159.824219 268.070312 162.933594 266.234375 C 164.1875 265.832031 165.230469 264.828125 165.585938 263.089844 C 166.570312 258.171875 162.746094 251.5625 158.386719 249.226562" style="fill: rgb(218, 173, 212);"/></g><g id="__id817_sxxadgm5t"><path d="M 170.753906 206.242188 C 166.59375 207.753906 164 210.726562 162.5 214.863281 C 161.378906 217.964844 160.925781 222.480469 164.285156 224.246094 C 165.351562 225.152344 166.835938 225.535156 168.605469 224.882812 C 173.570312 223.035156 177.371094 215.925781 177.035156 210.691406 C 176.859375 207.695312 173.769531 205.148438 170.753906 206.242188" style="fill: rgb(218, 173, 212);"/></g><g id="__id818_sxxadgm5t"><path d="M 192.867188 166.78125 C 190.117188 167.785156 188.375 169.757812 187.390625 172.507812 C 186.625 174.574219 186.328125 177.609375 188.621094 178.761719 C 189.324219 179.339844 190.289062 179.582031 191.4375 179.160156 C 194.746094 177.929688 197.273438 173.210938 197.050781 169.734375 C 196.917969 167.742188 194.882812 166.054688 192.867188 166.78125" style="fill: rgb(218, 173, 212);"/></g><g id="__id819_sxxadgm5t"><path d="M 232.207031 135.863281 C 227.957031 134.222656 223.933594 134.769531 219.972656 136.960938 C 217.003906 138.605469 213.582031 141.820312 215.027344 145.476562 C 215.246094 146.886719 216.140625 148.175781 217.9375 148.859375 C 223.039062 150.792969 230.800781 147.839844 234.085938 143.558594 C 235.964844 141.097656 235.292969 137.039062 232.207031 135.863281" style="fill: rgb(218, 173, 212);"/></g><g id="__id820_sxxadgm5t"><path d="M 277.289062 118.511719 C 272.996094 116.84375 268.902344 117.402344 264.902344 119.617188 C 261.894531 121.289062 258.4375 124.535156 259.878906 128.234375 C 260.09375 129.671875 260.996094 130.988281 262.820312 131.683594 C 268.011719 133.640625 275.859375 130.65625 279.191406 126.304688 C 281.09375 123.820312 280.421875 119.707031 277.289062 118.511719" style="fill: rgb(218, 173, 212);"/></g><g id="__id821_sxxadgm5t"><path d="M 315.308594 108.515625 C 312.988281 107.226562 309.460938 106.289062 307.636719 108.785156 C 306.816406 109.511719 306.34375 110.609375 306.632812 112.058594 C 307.460938 116.21875 312.582031 120.132812 316.761719 120.535156 C 319.15625 120.757812 321.550781 118.65625 321.058594 116.128906 C 320.386719 112.652344 318.371094 110.226562 315.308594 108.515625" style="fill: rgb(218, 173, 212);"/></g><g id="__id822_sxxadgm5t"><path d="M 356.191406 151.964844 C 359.453125 152.28125 362.695312 149.417969 362.046875 145.996094 C 361.152344 141.265625 358.402344 137.96875 354.222656 135.640625 C 351.078125 133.898438 346.28125 132.632812 343.816406 135.988281 C 342.6875 136.976562 342.046875 138.488281 342.4375 140.460938 C 343.554688 146.117188 350.53125 151.417969 356.191406 151.964844" style="fill: rgb(218, 173, 212);"/></g><g id="__id823_sxxadgm5t"><path d="M 393.378906 177.988281 C 395.550781 178.1875 397.71875 176.285156 397.292969 174.003906 C 396.6875 170.851562 394.855469 168.648438 392.0625 167.097656 C 389.980469 165.9375 386.765625 165.089844 385.128906 167.339844 C 384.378906 167.996094 383.945312 168.996094 384.210938 170.316406 C 384.949219 174.082031 389.597656 177.617188 393.378906 177.988281" style="fill: rgb(218, 173, 212);"/></g><g id="__id824_sxxadgm5t"><path d="M 431.6875 206.667969 C 433.722656 206.867188 435.777344 205.070312 435.355469 202.921875 C 434.796875 199.957031 433.074219 197.878906 430.457031 196.425781 C 428.480469 195.328125 425.453125 194.53125 423.910156 196.652344 C 423.207031 197.269531 422.804688 198.210938 423.058594 199.445312 C 423.746094 203 428.132812 206.332031 431.6875 206.667969" style="fill: rgb(218, 173, 212);"/></g><g id="__id825_sxxadgm5t"><path d="M 434.476562 237.171875 C 433.617188 236.835938 432.609375 236.90625 431.644531 237.683594 C 428.871094 239.910156 427.976562 245.234375 429.292969 248.476562 C 430.054688 250.332031 432.535156 251.292969 434.214844 249.960938 C 436.539062 248.117188 437.546875 245.679688 437.636719 242.738281 C 437.679688 240.53125 437.011719 237.566406 434.476562 237.171875" style="fill: rgb(218, 173, 212);"/></g><g id="__id826_sxxadgm5t"><path d="M 426.566406 284.703125 C 425.707031 284.367188 424.695312 284.4375 423.726562 285.21875 C 420.976562 287.441406 420.058594 292.753906 421.378906 295.996094 C 422.136719 297.851562 424.644531 298.816406 426.320312 297.484375 C 428.621094 295.636719 429.652344 293.203125 429.71875 290.273438 C 429.78125 288.066406 429.097656 285.09375 426.566406 284.703125" style="fill: rgb(218, 173, 212);"/></g><g id="__id827_sxxadgm5t"><path d="M 418.976562 330.75 C 417.925781 330.335938 416.6875 330.433594 415.496094 331.386719 C 412.117188 334.105469 411.003906 340.613281 412.632812 344.582031 C 413.550781 346.851562 416.589844 348.035156 418.648438 346.394531 C 421.488281 344.144531 422.71875 341.160156 422.832031 337.570312 C 422.894531 334.867188 422.070312 331.238281 418.976562 330.75" style="fill: rgb(218, 173, 212);"/></g><g id="__id828_sxxadgm5t"><path d="M 408.542969 372.625 C 403.375 370.421875 395.28125 373.117188 391.726562 377.390625 C 389.6875 379.824219 390.203125 384.03125 393.335938 385.371094 C 397.628906 387.238281 401.789062 386.847656 405.945312 384.757812 C 409.066406 383.1875 412.71875 380.027344 411.386719 376.214844 C 411.222656 374.757812 410.355469 373.398438 408.542969 372.625" style="fill: rgb(218, 173, 212);"/></g><g id="__id829_sxxadgm5t"><path d="M 360.101562 390.550781 C 356.882812 389.175781 351.828125 390.863281 349.613281 393.523438 C 348.339844 395.046875 348.652344 397.671875 350.597656 398.511719 C 353.28125 399.671875 355.878906 399.429688 358.492188 398.117188 C 360.421875 397.144531 362.703125 395.175781 361.878906 392.792969 C 361.773438 391.882812 361.238281 391.03125 360.101562 390.550781" style="fill: rgb(218, 173, 212);"/></g><g id="__id830_sxxadgm5t"><path d="M 316.402344 404.191406 C 311.820312 402.234375 304.644531 404.628906 301.488281 408.417969 C 299.679688 410.589844 300.148438 414.3125 302.898438 415.507812 C 306.722656 417.164062 310.410156 416.804688 314.101562 414.960938 C 316.875 413.570312 320.101562 410.769531 318.9375 407.390625 C 318.796875 406.09375 318.027344 404.878906 316.402344 404.191406" style="fill: rgb(218, 173, 212);"/></g><g id="__id831_sxxadgm5t"><path d="M 269.285156 420.910156 C 265.730469 419.386719 260.140625 421.253906 257.679688 424.207031 C 256.269531 425.894531 256.628906 428.792969 258.773438 429.71875 C 261.75 431.015625 264.632812 430.738281 267.496094 429.296875 C 269.664062 428.210938 272.1875 426.027344 271.246094 423.386719 C 271.128906 422.382812 270.539062 421.441406 269.285156 420.910156" style="fill: rgb(218, 173, 212);"/></g><g id="__id832_sxxadgm5t"><path d="M 220.019531 409.289062 C 217.628906 409.03125 215.210938 411.101562 215.65625 413.628906 C 216.285156 417.105469 218.253906 419.566406 221.316406 421.308594 C 223.589844 422.628906 227.105469 423.605469 228.949219 421.160156 C 229.792969 420.449219 230.285156 419.351562 230.015625 417.890625 C 229.253906 413.71875 224.179688 409.75 220.019531 409.289062" style="fill: rgb(218, 173, 212);"/></g><g id="__id833_sxxadgm5t"><path d="M 182.203125 380.308594 C 180.011719 380.074219 177.796875 381.964844 178.222656 384.277344 C 178.78125 387.464844 180.59375 389.710938 183.386719 391.3125 C 185.472656 392.511719 188.703125 393.414062 190.382812 391.160156 C 191.148438 390.507812 191.597656 389.503906 191.347656 388.167969 C 190.65625 384.355469 186.003906 380.722656 182.203125 380.308594" style="fill: rgb(218, 173, 212);"/></g><g id="__id834_sxxadgm5t"><path d="M 144.117188 350.710938 C 141.925781 350.476562 139.6875 352.386719 140.113281 354.703125 C 140.671875 357.921875 142.507812 360.179688 145.304688 361.789062 C 147.425781 363.003906 150.652344 363.902344 152.351562 361.660156 C 153.136719 361.003906 153.597656 359.988281 153.351562 358.636719 C 152.636719 354.792969 147.964844 351.136719 144.117188 350.710938" style="fill: rgb(218, 173, 212);"/></g><g id="__id835_sxxadgm5t"><path d="M 126.339844 309.347656 C 124.191406 312.132812 123.722656 315.230469 124.484375 318.628906 C 125.058594 321.1875 126.703125 324.414062 129.742188 324.121094 C 130.824219 324.257812 131.960938 323.882812 132.847656 322.710938 C 135.375 319.355469 134.882812 312.984375 132.421875 309.628906 C 131.011719 307.703125 127.859375 307.324219 126.339844 309.347656" style="fill: rgb(218, 173, 212);"/></g><g id="__id836_sxxadgm5t"><path d="M 125.78125 274.964844 C 126.703125 275.070312 127.667969 274.742188 128.421875 273.746094 C 130.589844 270.871094 130.160156 265.402344 128.058594 262.53125 C 126.851562 260.878906 124.144531 260.550781 122.828125 262.285156 C 120.992188 264.679688 120.59375 267.328125 121.238281 270.257812 C 121.753906 272.457031 123.164062 275.25 125.78125 274.964844" style="fill: rgb(218, 173, 212);"/></g><g id="__id837_sxxadgm5t"><path d="M 121.953125 230.160156 C 123.328125 230.339844 124.769531 229.855469 125.890625 228.371094 C 129.089844 224.144531 128.464844 216.128906 125.355469 211.898438 C 123.589844 209.484375 119.628906 209.003906 117.683594 211.554688 C 115 215.054688 114.417969 218.953125 115.378906 223.238281 C 116.101562 226.453125 118.15625 230.511719 121.953125 230.160156" style="fill: rgb(218, 173, 212);"/></g><g id="__id838_sxxadgm5t"><path d="M 137.273438 167.566406 C 133.023438 168.660156 130.183594 171.34375 128.308594 175.28125 C 126.910156 178.21875 126.042969 182.625 129.183594 184.683594 C 130.144531 185.675781 131.566406 186.191406 133.359375 185.714844 C 138.4375 184.371094 142.863281 177.726562 143.042969 172.539062 C 143.132812 169.566406 140.339844 166.769531 137.273438 167.566406" style="fill: rgb(218, 173, 212);"/></g><g id="__id839_sxxadgm5t"><path d="M 157.035156 142.671875 C 157.785156 143.429688 158.878906 143.824219 160.265625 143.457031 C 164.222656 142.40625 167.644531 137.242188 167.777344 133.214844 C 167.84375 130.898438 165.675781 128.71875 163.304688 129.34375 C 159.996094 130.195312 157.78125 132.277344 156.328125 135.339844 C 155.242188 137.632812 154.550781 141.085938 157.035156 142.671875" style="fill: rgb(218, 173, 212);"/></g><g id="__id840_sxxadgm5t"><path d="M 182.394531 104.09375 C 183.335938 105.058594 184.726562 105.558594 186.472656 105.089844 C 191.460938 103.78125 195.777344 97.273438 195.933594 92.199219 C 196.023438 89.292969 193.296875 86.554688 190.296875 87.335938 C 186.136719 88.40625 183.363281 91.023438 181.53125 94.871094 C 180.152344 97.765625 179.304688 102.089844 182.394531 104.09375" style="fill: rgb(218, 173, 212);"/></g><g id="__id841_sxxadgm5t"><path d="M 238.109375 77.449219 C 235.382812 76.03125 232.609375 76.109375 229.789062 77.296875 C 227.664062 78.1875 225.121094 80.113281 225.855469 82.683594 C 225.90625 83.644531 226.402344 84.570312 227.554688 85.152344 C 230.863281 86.820312 236.300781 85.414062 238.804688 82.761719 C 240.257812 81.242188 240.101562 78.46875 238.109375 77.449219" style="fill: rgb(218, 173, 212);"/></g><g id="__id842_sxxadgm5t"><path d="M 286.078125 64.179688 C 282.636719 62.402344 279.171875 62.503906 275.613281 63.988281 C 272.945312 65.113281 269.761719 67.519531 270.648438 70.746094 C 270.699219 71.964844 271.335938 73.140625 272.796875 73.886719 C 276.957031 75.988281 283.796875 74.195312 286.976562 70.875 C 288.785156 68.964844 288.585938 65.464844 286.078125 64.179688" style="fill: rgb(218, 173, 212);"/></g><g id="__id843_sxxadgm5t"><path d="M 334.296875 50.773438 C 330.023438 48.570312 325.730469 48.683594 321.324219 50.535156 C 318.023438 51.925781 314.089844 54.894531 315.171875 58.875 C 315.234375 60.386719 316.019531 61.851562 317.835938 62.769531 C 322.980469 65.375 331.453125 63.171875 335.367188 59.058594 C 337.628906 56.6875 337.382812 52.359375 334.296875 50.773438" style="fill: rgb(218, 173, 212);"/></g><g id="__id844_sxxadgm5t"><path d="M 327.050781 220.386719 C 324.65625 218.765625 322.308594 217.03125 319.9375 215.367188 C 321.078125 213.199219 322.175781 211.003906 323.402344 208.9375 C 324.882812 206.363281 320.476562 203.792969 318.574219 205.917969 C 316.964844 207.761719 315.242188 209.53125 313.609375 211.34375 C 310.789062 209.808594 307.859375 208.570312 304.617188 207.910156 C 301.308594 207.25 299.628906 211.027344 302.179688 213.175781 C 304.191406 214.898438 306.429688 216.261719 308.710938 217.523438 C 307.277344 219.738281 306.113281 222.132812 305.46875 224.859375 C 304.664062 228.148438 309.269531 229.445312 311.304688 227.65625 C 313.40625 225.800781 315.105469 223.617188 316.601562 221.292969 C 319.175781 222.390625 321.746094 223.472656 324.253906 224.65625 C 327.117188 225.988281 329.777344 222.265625 327.050781 220.386719" style="fill: rgb(136, 106, 161);"/></g><g id="__id845_sxxadgm5t"><path d="M 396.464844 86.351562 C 393.625 84.25 390.851562 82.003906 388.035156 79.84375 C 389.53125 77.25 390.988281 74.636719 392.597656 72.152344 C 394.542969 69.078125 389.289062 65.710938 386.847656 68.226562 C 384.769531 70.386719 382.601562 72.476562 380.5 74.613281 C 377.144531 72.578125 373.589844 70.925781 369.675781 69.949219 C 365.648438 68.964844 363.414062 73.507812 366.40625 76.277344 C 368.78125 78.472656 371.460938 80.261719 374.191406 81.925781 C 372.335938 84.566406 370.769531 87.4375 369.832031 90.738281 C 368.710938 94.71875 374.28125 96.527344 376.851562 94.449219 C 379.515625 92.292969 381.703125 89.695312 383.652344 86.925781 C 386.738281 88.410156 389.847656 89.875 392.863281 91.441406 C 396.285156 93.21875 399.730469 88.789062 396.464844 86.351562" style="fill: rgb(136, 106, 161);"/></g><g id="__id846_sxxadgm5t"><path d="M 223.863281 45.648438 C 221.046875 45.460938 218.210938 45.148438 215.367188 44.925781 C 215.257812 42.519531 215.097656 40.128906 215.097656 37.769531 C 215.074219 34.851562 210.066406 34.863281 209.53125 37.601562 C 209.058594 39.972656 208.5 42.316406 208.007812 44.667969 C 204.878906 44.757812 201.769531 45.167969 198.707031 46.21875 C 195.578125 47.292969 196.023438 51.332031 199.242188 51.890625 C 201.792969 52.335938 204.386719 52.394531 206.9375 52.316406 C 206.824219 54.90625 207.027344 57.515625 207.828125 60.144531 C 208.792969 63.316406 213.332031 62.132812 214.160156 59.617188 C 215.03125 56.988281 215.367188 54.304688 215.480469 51.597656 C 218.210938 51.253906 220.914062 50.894531 223.644531 50.636719 C 226.726562 50.347656 227.128906 45.875 223.863281 45.648438" style="fill: rgb(136, 106, 161);"/></g><g clip-path="url(#__id803_sxxadgm5t)" id="__id847_sxxadgm5t"><path d="M 291.761719 474.558594 C 293.527344 472.691406 295.273438 470.800781 297.105469 469.054688 C 299.363281 466.875 295.652344 463.015625 293.101562 464.628906 C 290.933594 466.015625 288.695312 467.320312 286.527344 468.675781 C 284.136719 466.316406 281.496094 464.214844 278.429688 462.617188 C 275.277344 460.996094 272.484375 464.335938 274.429688 467.246094 C 275.972656 469.558594 277.851562 471.585938 279.796875 473.515625 C 277.71875 475.351562 275.839844 477.429688 274.40625 480.003906 C 272.664062 483.089844 276.933594 485.726562 279.503906 484.496094 C 282.164062 483.234375 284.492188 481.511719 286.683594 479.589844 C 288.964844 481.445312 291.269531 483.277344 293.460938 485.191406 C 295.984375 487.371094 299.742188 484.363281 297.507812 481.679688 C 295.5625 479.355469 293.683594 476.929688 291.761719 474.558594" style="fill: rgb(136, 106, 161);"/></g><g id="__id848_sxxadgm5t"><path d="M 283.417969 358.914062 C 285.65625 360.570312 288.628906 357.808594 286.570312 355.695312 C 284.78125 353.871094 283.058594 351.949219 281.292969 350.09375 C 282.65625 348.40625 284 346.695312 285.40625 345.105469 C 287.152344 343.140625 283.773438 340.132812 281.765625 341.652344 C 280.019531 342.960938 278.230469 344.203125 276.488281 345.488281 C 274.316406 343.652344 271.96875 342.066406 269.285156 340.925781 C 266.535156 339.761719 264.410156 342.757812 266.242188 345.070312 C 267.699219 346.90625 269.398438 348.496094 271.164062 349.992188 C 269.53125 351.667969 268.101562 353.539062 267.050781 355.796875 C 265.773438 358.503906 269.554688 360.4375 271.636719 359.238281 C 273.78125 358.011719 275.636719 356.398438 277.335938 354.644531 C 279.394531 356.054688 281.429688 357.453125 283.417969 358.914062" style="fill: rgb(136, 106, 161);"/></g><g id="__id849_sxxadgm5t"><path d="M 249.449219 210.3125 C 247.347656 211.328125 245.199219 212.269531 243.097656 213.253906 C 241.195312 210.882812 239.074219 208.734375 236.476562 206.980469 C 233.816406 205.191406 230.976562 207.886719 232.433594 210.703125 C 233.570312 212.941406 235.023438 214.953125 236.566406 216.886719 C 234.511719 218.320312 232.609375 219.984375 231.042969 222.144531 C 229.164062 224.726562 232.71875 227.53125 235.136719 226.71875 C 237.664062 225.855469 239.945312 224.558594 242.113281 223.058594 C 243.972656 224.960938 245.824219 226.851562 247.59375 228.808594 C 249.628906 231.011719 253.296875 228.71875 251.597656 226.070312 C 250.097656 223.789062 248.664062 221.402344 247.191406 219.089844 C 248.980469 217.589844 250.746094 216.082031 252.558594 214.707031 C 254.816406 212.996094 251.886719 209.136719 249.449219 210.3125" style="fill: rgb(136, 106, 161);"/></g><g id="__id850_sxxadgm5t"><path d="M 175.3125 89.269531 C 173.1875 88.925781 171.042969 88.488281 168.894531 88.105469 C 168.984375 86.273438 169.03125 84.441406 169.210938 82.640625 C 169.410156 80.414062 165.585938 80.058594 164.980469 82.113281 C 164.445312 83.882812 163.863281 85.628906 163.304688 87.382812 C 160.914062 87.226562 158.519531 87.316406 156.105469 87.894531 C 153.644531 88.488281 153.714844 91.585938 156.105469 92.257812 C 158.027344 92.78125 159.972656 93.003906 161.941406 93.128906 C 161.671875 95.09375 161.628906 97.097656 162.054688 99.167969 C 162.546875 101.648438 166.101562 101.066406 166.90625 99.210938 C 167.757812 97.277344 168.226562 95.253906 168.496094 93.195312 C 170.597656 93.128906 172.699219 93.0625 174.777344 93.0625 C 177.148438 93.0625 177.773438 89.683594 175.3125 89.269531" style="fill: rgb(136, 106, 161);"/></g><g id="__id851_sxxadgm5t"><path d="M 142.21875 26.472656 C 140.113281 26.542969 137.96875 26.507812 135.84375 26.53125 C 135.574219 24.753906 135.304688 22.976562 135.128906 21.21875 C 134.925781 19.039062 131.191406 19.398438 130.96875 21.488281 C 130.789062 23.277344 130.542969 25.074219 130.320312 26.851562 C 127.992188 27.144531 125.710938 27.683594 123.496094 28.675781 C 121.238281 29.695312 121.863281 32.671875 124.304688 32.867188 C 126.226562 33.015625 128.171875 32.878906 130.070312 32.648438 C 130.160156 34.578125 130.496094 36.515625 131.28125 38.414062 C 132.222656 40.71875 135.527344 39.511719 135.953125 37.578125 C 136.425781 35.566406 136.492188 33.527344 136.378906 31.507812 C 138.390625 31.058594 140.40625 30.601562 142.394531 30.21875 C 144.675781 29.785156 144.675781 26.417969 142.21875 26.472656" style="fill: rgb(136, 106, 161);"/></g><g id="__id852_sxxadgm5t"><path d="M 358.804688 446.042969 C 356.589844 444.367188 354.421875 442.589844 352.230469 440.867188 C 353.4375 438.84375 354.601562 436.796875 355.875 434.863281 C 357.441406 432.46875 353.328125 429.785156 351.402344 431.730469 C 349.75 433.421875 348.027344 435.042969 346.351562 436.695312 C 343.734375 435.074219 340.960938 433.746094 337.894531 432.949219 C 334.765625 432.148438 332.953125 435.691406 335.28125 437.894531 C 337.136719 439.636719 339.214844 441.058594 341.363281 442.378906 C 339.863281 444.445312 338.632812 446.683594 337.871094 449.265625 C 336.933594 452.386719 341.296875 453.851562 343.328125 452.238281 C 345.453125 450.5625 347.175781 448.550781 348.71875 446.394531 C 351.15625 447.578125 353.574219 448.753906 355.921875 450.003906 C 358.605469 451.421875 361.335938 447.980469 358.804688 446.042969" style="fill: rgb(136, 106, 161);"/></g><g id="__id853_sxxadgm5t"><path d="M 452.730469 111.097656 C 450.785156 111.0625 448.796875 110.941406 446.828125 110.875 C 446.671875 109.21875 446.492188 107.566406 446.425781 105.933594 C 446.3125 103.90625 442.847656 104.074219 442.554688 105.988281 C 442.308594 107.644531 441.996094 109.285156 441.726562 110.929688 C 439.558594 111.085938 437.433594 111.480469 435.355469 112.292969 C 433.207031 113.144531 433.65625 115.917969 435.914062 116.207031 C 437.679688 116.433594 439.472656 116.386719 441.234375 116.253906 C 441.257812 118.054688 441.460938 119.84375 442.109375 121.640625 C 442.867188 123.8125 445.976562 122.839844 446.46875 121.070312 C 446.984375 119.226562 447.140625 117.359375 447.117188 115.480469 C 448.996094 115.15625 450.875 114.824219 452.730469 114.5625 C 454.855469 114.261719 454.988281 111.152344 452.730469 111.097656" style="fill: rgb(136, 106, 161);"/></g><g id="__id854_sxxadgm5t"><path d="M 42.746094 318.09375 C 38.941406 318.125 35.074219 317.992188 31.25 317.96875 C 30.824219 314.761719 30.402344 311.539062 30.152344 308.363281 C 29.84375 304.4375 23.109375 304.953125 22.640625 308.710938 C 22.261719 311.945312 21.746094 315.152344 21.320312 318.371094 C 17.09375 318.808594 12.957031 319.691406 8.933594 321.402344 C 4.839844 323.171875 5.867188 328.550781 10.25 328.984375 C 13.738281 329.328125 17.207031 329.132812 20.648438 328.78125 C 20.761719 332.273438 21.296875 335.761719 22.640625 339.226562 C 24.25 343.398438 30.222656 341.339844 31.09375 337.863281 C 32.011719 334.25 32.1875 330.605469 32.058594 326.949219 C 35.699219 326.199219 39.324219 325.4375 42.945312 324.824219 C 47.082031 324.117188 47.148438 318.070312 42.746094 318.09375" style="fill: rgb(136, 106, 161);"/></g><g id="__id855_sxxadgm5t"><path d="M 156.933594 433.03125 C 156.214844 432.617188 155.5 432.210938 154.785156 431.796875 C 149.507812 428.792969 144.835938 436.988281 150.132812 439.996094 C 150.851562 440.398438 151.539062 440.8125 152.257812 441.214844 C 157.558594 444.222656 162.207031 436.035156 156.933594 433.03125" style="fill: rgb(117, 79, 133);"/></g><g id="__id856_sxxadgm5t"><path d="M 95.882812 398.847656 C 95.253906 398.476562 94.605469 398.117188 93.980469 397.75 C 89.261719 395.066406 85.078125 402.378906 89.796875 405.074219 C 90.445312 405.433594 91.074219 405.800781 91.71875 406.160156 C 96.4375 408.855469 100.621094 401.53125 95.882812 398.847656" style="fill: rgb(117, 79, 133);"/></g><g id="__id857_sxxadgm5t"><path d="M 71.257812 332.261719 C 69.714844 327.035156 61.621094 329.441406 63.164062 334.664062 C 63.386719 335.367188 63.589844 336.070312 63.789062 336.773438 C 65.355469 342 73.429688 339.59375 71.882812 334.371094 C 71.683594 333.667969 71.460938 332.964844 71.257812 332.261719" style="fill: rgb(117, 79, 133);"/></g><g id="__id858_sxxadgm5t"><path d="M 45.875 261.378906 C 45.539062 262.183594 45.226562 262.988281 44.914062 263.792969 C 42.609375 269.753906 51.847656 273.355469 54.171875 267.394531 C 54.484375 266.589844 54.796875 265.785156 55.109375 264.980469 C 57.4375 259.019531 48.179688 255.417969 45.875 261.378906" style="fill: rgb(117, 79, 133);"/></g><g id="__id859_sxxadgm5t"><path d="M 80.5625 203.097656 C 80.941406 202.09375 81.34375 201.085938 81.722656 200.070312 C 84.652344 192.597656 73.070312 188.09375 70.160156 195.5625 C 69.757812 196.570312 69.359375 197.574219 68.976562 198.59375 C 66.070312 206.0625 77.632812 210.570312 80.5625 203.097656" style="fill: rgb(117, 79, 133);"/></g><g id="__id860_sxxadgm5t"><path d="M 96.351562 131.113281 C 96.011719 131.964844 95.679688 132.800781 95.34375 133.648438 C 92.90625 139.914062 102.609375 143.691406 105.050781 137.429688 C 105.382812 136.578125 105.71875 135.742188 106.03125 134.890625 C 108.492188 128.632812 98.785156 124.851562 96.351562 131.113281" style="fill: rgb(117, 79, 133);"/></g><g id="__id861_sxxadgm5t"><path d="M 131.371094 73.066406 C 131.773438 72.027344 132.175781 71 132.578125 69.960938 C 135.574219 62.300781 123.699219 57.671875 120.703125 65.328125 C 120.300781 66.371094 119.898438 67.410156 119.496094 68.441406 C 116.5 76.109375 128.398438 80.726562 131.371094 73.066406" style="fill: rgb(117, 79, 133);"/></g><g id="__id862_sxxadgm5t"><path d="M 408.566406 332.753906 C 407.960938 333.1875 407.378906 333.636719 406.796875 334.070312 C 402.4375 337.335938 407.492188 344.101562 411.851562 340.835938 C 412.433594 340.390625 413.035156 339.953125 413.617188 339.507812 C 417.980469 336.253906 412.925781 329.488281 408.566406 332.753906" style="fill: rgb(117, 79, 133);"/></g><g id="__id863_sxxadgm5t"><path d="M 352.140625 373.363281 C 351.382812 373.933594 350.621094 374.515625 349.839844 375.085938 C 344.160156 379.34375 350.753906 388.15625 356.4375 383.90625 C 357.21875 383.328125 357.980469 382.753906 358.738281 382.175781 C 364.417969 377.925781 357.84375 369.105469 352.140625 373.363281" style="fill: rgb(117, 79, 133);"/></g><g id="__id864_sxxadgm5t"><path d="M 286.328125 383.335938 C 285.433594 383.304688 284.558594 383.269531 283.664062 383.246094 C 277.089844 383.015625 276.730469 393.210938 283.308594 393.445312 C 284.203125 393.46875 285.074219 393.503906 285.96875 393.535156 C 292.546875 393.769531 292.902344 383.574219 286.328125 383.335938" style="fill: rgb(117, 79, 133);"/></g><g id="__id865_sxxadgm5t"><path d="M 216.238281 381.949219 C 215.523438 381.929688 214.832031 381.894531 214.136719 381.871094 C 208.949219 381.695312 208.660156 389.730469 213.847656 389.910156 C 214.539062 389.945312 215.257812 389.96875 215.949219 389.992188 C 221.136719 390.171875 221.429688 382.128906 216.238281 381.949219" style="fill: rgb(117, 79, 133);"/></g><g id="__id866_sxxadgm5t"><path d="M 192.242188 281.359375 C 192.289062 281.941406 192.355469 282.523438 192.398438 283.105469 C 192.804688 287.410156 199.46875 286.792969 199.0625 282.488281 C 199.019531 281.90625 198.953125 281.324219 198.90625 280.746094 C 198.503906 276.453125 191.839844 277.066406 192.242188 281.359375" style="fill: rgb(117, 79, 133);"/></g><g id="__id867_sxxadgm5t"><path d="M 192.714844 211.140625 C 192.289062 206.566406 185.199219 207.226562 185.625 211.789062 C 185.671875 212.414062 185.738281 213.027344 185.78125 213.644531 C 186.207031 218.21875 193.296875 217.570312 192.871094 212.996094 C 192.824219 212.382812 192.757812 211.765625 192.714844 211.140625" style="fill: rgb(117, 79, 133);"/></g><g id="__id868_sxxadgm5t"><path d="M 432.179688 389.175781 C 436.675781 382.230469 425.894531 375.277344 421.425781 382.21875 C 420.796875 383.15625 420.195312 384.097656 419.589844 385.039062 C 415.117188 391.980469 425.875 398.9375 430.367188 391.992188 C 430.972656 391.054688 431.574219 390.113281 432.179688 389.175781" style="fill: rgb(117, 79, 133);"/></g><g id="__id869_sxxadgm5t"><path d="M 467.066406 329.53125 C 469.414062 325.898438 463.777344 322.261719 461.453125 325.898438 C 461.117188 326.390625 460.804688 326.882812 460.492188 327.375 C 458.144531 330.996094 463.777344 334.632812 466.128906 331.007812 C 466.441406 330.515625 466.753906 330.023438 467.066406 329.53125" style="fill: rgb(117, 79, 133);"/></g><g id="__id870_sxxadgm5t"><path d="M 477.824219 266.15625 C 476.054688 258.953125 464.875 261.691406 466.640625 268.90625 C 466.886719 269.875 467.136719 270.847656 467.355469 271.835938 C 469.148438 279.035156 480.304688 276.296875 478.539062 269.085938 C 478.292969 268.097656 478.070312 267.136719 477.824219 266.15625" style="fill: rgb(117, 79, 133);"/></g><g id="__id871_sxxadgm5t"><path d="M 461.878906 201.277344 C 461.65625 200.296875 461.410156 199.320312 461.160156 198.335938 C 459.375 191.089844 448.148438 193.851562 449.9375 201.097656 C 450.183594 202.085938 450.40625 203.058594 450.652344 204.039062 C 452.441406 211.285156 463.667969 208.523438 461.878906 201.277344" style="fill: rgb(117, 79, 133);"/></g><g id="__id872_sxxadgm5t"><path d="M 423.347656 152.558594 C 423.949219 152.859375 424.554688 153.164062 425.179688 153.464844 C 429.675781 155.691406 433.117188 148.699219 428.621094 146.476562 C 427.996094 146.175781 427.394531 145.871094 426.789062 145.570312 C 422.273438 143.347656 418.828125 150.332031 423.347656 152.558594" style="fill: rgb(117, 79, 133);"/></g><g id="__id873_sxxadgm5t"><path d="M 361.019531 121.328125 C 361.554688 121.597656 362.09375 121.867188 362.652344 122.132812 C 366.65625 124.125 369.742188 117.882812 365.71875 115.90625 C 365.179688 115.636719 364.644531 115.367188 364.085938 115.101562 C 360.058594 113.109375 356.992188 119.347656 361.019531 121.328125" style="fill: rgb(117, 79, 133);"/></g><g id="__id874_sxxadgm5t"><path d="M 304.640625 83.210938 C 303.746094 82.773438 302.851562 82.328125 301.933594 81.882812 C 295.269531 78.59375 290.195312 88.914062 296.835938 92.203125 C 297.753906 92.648438 298.648438 93.09375 299.542969 93.542969 C 306.207031 96.816406 311.304688 86.496094 304.640625 83.210938" style="fill: rgb(117, 79, 133);"/></g><g id="__id875_sxxadgm5t"><path d="M 342.457031 19.640625 C 341.605469 19.585938 340.757812 19.539062 339.929688 19.484375 C 333.671875 19.09375 333.066406 28.789062 339.324219 29.179688 C 340.15625 29.234375 341.003906 29.292969 341.855469 29.335938 C 348.117188 29.726562 348.71875 20.035156 342.457031 19.640625" style="fill: rgb(117, 79, 133);"/></g><g id="__id876_sxxadgm5t"><path d="M 273.019531 14.542969 C 272.058594 14.476562 271.074219 14.421875 270.089844 14.351562 C 262.867188 13.90625 262.171875 25.113281 269.394531 25.570312 C 270.382812 25.625 271.34375 25.695312 272.324219 25.746094 C 279.550781 26.207031 280.265625 14.992188 273.019531 14.542969" style="fill: rgb(117, 79, 133);"/></g><g id="__id877_sxxadgm5t"><path d="M 203.335938 10.160156 C 202.605469 10.117188 201.886719 10.074219 201.160156 10.027344 C 202.015625 8.347656 201.433594 6.054688 198.976562 5.710938 C 195.472656 5.21875 194.835938 9.460938 196.566406 11.152344 C 193.21875 13.972656 194.046875 20.882812 199.691406 21.230469 C 200.671875 21.300781 201.65625 21.355469 202.644531 21.421875 C 209.890625 21.867188 210.601562 10.621094 203.335938 10.160156" style="fill: rgb(117, 79, 133);"/></g><g id="__id878_sxxadgm5t"><path d="M 304.375 446.839844 C 303.792969 447.050781 303.210938 447.253906 302.605469 447.464844 C 298.289062 449.03125 300.703125 455.75 305.023438 454.183594 C 305.625 453.972656 306.207031 453.757812 306.789062 453.558594 C 311.128906 451.992188 308.710938 445.273438 304.375 446.839844" style="fill: rgb(117, 79, 133);"/></g><g id="__id879_sxxadgm5t"><path d="M 127.007812 424.789062 C 121.195312 423.980469 121.621094 433.53125 126.921875 432.4375 C 131.011719 431.574219 131.617188 425.449219 127.007812 424.789062" style="fill: rgb(117, 79, 133);"/></g><g id="__id880_sxxadgm5t"><path d="M 64.121094 403.0625 C 57.839844 402.179688 58.289062 412.542969 64.035156 411.347656 C 68.484375 410.421875 69.15625 403.765625 64.121094 403.0625" style="fill: rgb(117, 79, 133);"/></g><g id="__id881_sxxadgm5t"><path d="M 31.875 342.546875 C 22.4375 341.226562 23.132812 356.734375 31.742188 354.945312 C 38.382812 353.550781 39.367188 343.609375 31.875 342.546875" style="fill: rgb(117, 79, 133);"/></g><g id="__id882_sxxadgm5t"><path d="M 8.617188 281.875 C 1.863281 280.9375 2.355469 292.050781 8.53125 290.765625 C 13.292969 289.769531 13.984375 282.636719 8.617188 281.875" style="fill: rgb(117, 79, 133);"/></g><g id="__id883_sxxadgm5t"><path d="M 2.449219 216.886719 C -0.929688 216.417969 -0.683594 221.953125 2.402344 221.316406 C 4.769531 220.8125 5.128906 217.269531 2.449219 216.886719" style="fill: rgb(117, 79, 133);"/></g><g id="__id884_sxxadgm5t"><path d="M 15.035156 151.039062 C 11.257812 150.511719 11.527344 156.707031 14.972656 155.992188 C 17.632812 155.433594 18.011719 151.464844 15.035156 151.039062" style="fill: rgb(117, 79, 133);"/></g><g id="__id885_sxxadgm5t"><path d="M 51.757812 91.84375 C 42.65625 90.570312 43.324219 105.550781 51.644531 103.828125 C 58.0625 102.476562 59.003906 92.859375 51.757812 91.84375" style="fill: rgb(117, 79, 133);"/></g><g id="__id886_sxxadgm5t"><path d="M 249.226562 468.320312 C 240.972656 467.15625 241.578125 480.761719 249.113281 479.199219 C 254.949219 477.96875 255.800781 469.246094 249.226562 468.320312" style="fill: rgb(117, 79, 133);"/></g><g id="__id887_sxxadgm5t"><path d="M 313.050781 453.871094 C 308.890625 453.289062 309.179688 460.132812 313.003906 459.351562 C 315.933594 458.734375 316.359375 454.339844 313.050781 453.871094" style="fill: rgb(117, 79, 133);"/></g><g id="__id888_sxxadgm5t"><path d="M 377.34375 436.449219 C 372.695312 435.804688 373.027344 443.484375 377.300781 442.601562 C 380.589844 441.90625 381.078125 436.976562 377.34375 436.449219" style="fill: rgb(117, 79, 133);"/></g><g id="__id889_sxxadgm5t"><path d="M 436.449219 415.027344 C 427.304688 413.753906 427.953125 428.824219 436.339844 427.09375 C 442.804688 425.726562 443.742188 416.054688 436.449219 415.027344" style="fill: rgb(117, 79, 133);"/></g><g id="__id890_sxxadgm5t"><path d="M 470.78125 359.632812 C 463.800781 358.660156 464.296875 370.15625 470.691406 368.835938 C 475.609375 367.792969 476.347656 360.425781 470.78125 359.632812" style="fill: rgb(117, 79, 133);"/></g><g id="__id891_sxxadgm5t"><path d="M 492.898438 302.347656 C 487.285156 301.554688 487.707031 310.789062 492.828125 309.730469 C 496.785156 308.902344 497.367188 302.976562 492.898438 302.347656" style="fill: rgb(117, 79, 133);"/></g><g clip-path="url(#__id804_sxxadgm5t)" id="__id892_sxxadgm5t"><path d="M 496.453125 237.628906 C 493.410156 237.203125 493.632812 242.191406 496.40625 241.621094 C 498.53125 241.171875 498.867188 237.976562 496.453125 237.628906" style="fill: rgb(117, 79, 133);"/></g><g id="__id893_sxxadgm5t"><path d="M 495.871094 176.578125 C 498.328125 176.0625 498.6875 172.394531 495.914062 172.003906 C 492.449219 171.523438 492.695312 177.234375 495.871094 176.578125" style="fill: rgb(117, 79, 133);"/></g><g id="__id894_sxxadgm5t"><path d="M 480.371094 113.257812 C 473.441406 112.28125 473.933594 123.699219 480.285156 122.378906 C 485.160156 121.351562 485.894531 114.039062 480.371094 113.257812" style="fill: rgb(117, 79, 133);"/></g><g id="__id895_sxxadgm5t"><path d="M 204.050781 146.632812 C 198.214844 145.816406 198.640625 155.410156 203.960938 154.304688 C 208.078125 153.441406 208.679688 147.292969 204.050781 146.632812" style="fill: rgb(117, 79, 133);"/></g><g id="__id896_sxxadgm5t"><path d="M 166.054688 189.796875 C 160.128906 188.957031 160.554688 198.726562 165.96875 197.597656 C 170.171875 196.726562 170.773438 190.453125 166.054688 189.796875" style="fill: rgb(117, 79, 133);"/></g><g id="__id897_sxxadgm5t"><path d="M 157.757812 255.988281 C 152.191406 255.207031 152.59375 264.363281 157.671875 263.3125 C 161.605469 262.484375 162.1875 256.613281 157.757812 255.988281" style="fill: rgb(117, 79, 133);"/></g><g id="__id898_sxxadgm5t"><path d="M 186.964844 417.632812 C 178.984375 416.527344 179.566406 429.664062 186.855469 428.15625 C 192.488281 426.96875 193.316406 418.535156 186.964844 417.632812" style="fill: rgb(117, 79, 133);"/></g><g id="__id899_sxxadgm5t"><path d="M 136.023438 374.457031 C 127.167969 373.226562 127.816406 387.8125 135.910156 386.132812 C 142.148438 384.8125 143.066406 375.464844 136.023438 374.457031" style="fill: rgb(117, 79, 133);"/></g><g id="__id900_sxxadgm5t"><path d="M 104.242188 318.761719 C 100.933594 318.292969 101.179688 323.75 104.199219 323.113281 C 106.523438 322.632812 106.882812 319.132812 104.242188 318.761719" style="fill: rgb(117, 79, 133);"/></g><g id="__id901_sxxadgm5t"><path d="M 85.636719 249.390625 C 76.402344 248.097656 77.074219 263.28125 85.503906 261.535156 C 92.011719 260.160156 92.972656 250.433594 85.636719 249.390625" style="fill: rgb(117, 79, 133);"/></g><g id="__id902_sxxadgm5t"><path d="M 114.621094 192.421875 C 109.277344 191.671875 109.65625 200.484375 114.554688 199.464844 C 118.332031 198.683594 118.890625 193.027344 114.621094 192.421875" style="fill: rgb(117, 79, 133);"/></g><g id="__id903_sxxadgm5t"><path d="M 241.351562 371.125 C 232.5625 369.894531 233.210938 384.34375 241.242188 382.675781 C 247.4375 381.382812 248.355469 372.109375 241.351562 371.125" style="fill: rgb(117, 79, 133);"/></g><g id="__id904_sxxadgm5t"><path d="M 186.09375 343.328125 C 190.320312 342.445312 190.945312 336.128906 186.183594 335.445312 C 180.191406 334.609375 180.636719 344.472656 186.09375 343.328125" style="fill: rgb(117, 79, 133);"/></g><g id="__id905_sxxadgm5t"><path d="M 146.242188 282.601562 C 143 282.15625 143.242188 287.488281 146.195312 286.871094 C 148.476562 286.390625 148.8125 282.96875 146.242188 282.601562" style="fill: rgb(117, 79, 133);"/></g><g id="__id906_sxxadgm5t"><path d="M 364.796875 198.246094 C 359.207031 197.476562 359.609375 206.644531 364.710938 205.582031 C 368.644531 204.765625 369.226562 198.886719 364.796875 198.246094" style="fill: rgb(117, 79, 133);"/></g><g id="__id907_sxxadgm5t"><path d="M 319.738281 162.488281 C 314.882812 161.804688 315.21875 169.824219 319.667969 168.894531 C 323.113281 168.179688 323.628906 163.035156 319.738281 162.488281" style="fill: rgb(117, 79, 133);"/></g><g id="__id908_sxxadgm5t"><path d="M 253.496094 157.636719 C 247.613281 156.808594 248.039062 166.503906 253.429688 165.386719 C 257.566406 164.511719 258.195312 158.296875 253.496094 157.636719" style="fill: rgb(117, 79, 133);"/></g><g id="__id909_sxxadgm5t"><path d="M 257.789062 107.644531 C 252.378906 106.882812 252.78125 115.78125 257.722656 114.753906 C 261.527344 113.960938 262.109375 108.246094 257.789062 107.644531" style="fill: rgb(117, 79, 133);"/></g><g id="__id910_sxxadgm5t"><path d="M 194.679688 135.496094 C 197.855469 134.835938 198.304688 130.117188 194.746094 129.613281 C 190.273438 128.988281 190.609375 136.347656 194.679688 135.496094" style="fill: rgb(117, 79, 133);"/></g><g id="__id911_sxxadgm5t"><path d="M 450.652344 53.078125 C 443.273438 52.035156 443.808594 64.203125 450.5625 62.804688 C 455.773438 61.707031 456.535156 53.902344 450.652344 53.078125" style="fill: rgb(117, 79, 133);"/></g><g id="__id912_sxxadgm5t"><path d="M 389.597656 26.65625 C 381.972656 25.59375 382.53125 38.125 389.488281 36.683594 C 394.855469 35.554688 395.660156 27.515625 389.597656 26.65625" style="fill: rgb(117, 79, 133);"/></g><g id="__id913_sxxadgm5t"><path d="M 328.570312 0.0742188 C 320.429688 -1.066406 321.035156 12.34375 328.457031 10.796875 C 334.207031 9.589844 335.054688 0.988281 328.570312 0.0742188" style="fill: rgb(117, 79, 133);"/></g><g id="__id914_sxxadgm5t"><path d="M 265.328125 7.800781 C 269.394531 6.941406 270 0.835938 265.394531 0.175781 C 259.601562 -0.632812 260.027344 8.898438 265.328125 7.800781" style="fill: rgb(117, 79, 133);"/></g></g></svg>